<?xml version="1.0" standalone="no"?>
<!DOCTYPE svg PUBLIC "-//W3C//DTD SVG 20010904//EN"
 "http://www.w3.org/TR/2001/REC-SVG-20010904/DTD/svg10.dtd">
<svg version="1.0" xmlns="http://www.w3.org/2000/svg"
 width="512.000000pt" height="512.000000pt" viewBox="0 0 512.000000 512.000000"
 preserveAspectRatio="xMidYMid meet">
<metadata>
Created by potrace 1.11, written by Peter Selinger 2001-2013
</metadata>
<g transform="translate(0.000000,512.000000) scale(0.100000,-0.100000)"
fill="#000000" stroke="none">
<path d="M1265 4166 c-266 -103 -404 -244 -476 -488 -19 -65 -23 -108 -29
-393 -8 -331 -12 -359 -56 -446 -42 -84 -145 -149 -235 -149 -58 0 -59 -2 -59
-130 l0 -118 58 -7 c159 -19 256 -122 282 -301 5 -38 10 -175 10 -305 0 -250
6 -309 46 -430 66 -202 211 -345 441 -433 51 -20 97 -36 102 -36 9 0 77 189
70 194 -2 1 -33 16 -69 34 -85 41 -153 109 -195 197 -54 113 -63 185 -69 510
-5 316 -10 356 -67 472 -35 72 -109 157 -168 193 -22 14 -41 27 -41 30 0 3 20
18 45 33 62 40 133 121 166 192 55 117 60 155 68 505 7 318 8 327 35 405 49
143 116 223 232 277 35 16 64 32 64 34 0 3 -14 45 -31 94 -23 64 -36 90 -48
90 -9 -1 -43 -11 -76 -24z"/>
<path d="M3731 4100 c-17 -49 -31 -91 -31 -94 0 -2 25 -16 56 -30 119 -55 193
-143 241 -290 25 -78 26 -92 34 -406 8 -356 13 -393 72 -505 38 -72 115 -151
180 -185 26 -14 47 -27 47 -30 0 -3 -21 -16 -46 -29 -62 -34 -144 -118 -181
-188 -59 -110 -64 -148 -73 -498 -6 -251 -11 -333 -24 -378 -43 -150 -121
-252 -234 -308 -37 -19 -69 -35 -71 -36 -1 -1 11 -45 29 -98 37 -111 25 -107
160 -54 174 70 302 180 378 327 76 145 84 193 92 552 6 262 10 323 24 365 47
133 133 204 269 220 l57 7 0 119 c0 115 -1 119 -22 123 -13 2 -50 9 -83 15
-101 18 -177 87 -217 196 -20 55 -22 87 -28 380 -7 288 -10 328 -29 395 -74
252 -214 397 -479 496 -34 13 -69 24 -76 24 -8 0 -26 -36 -45 -90z"/>
<path d="M1610 3855 c0 -100 1 -105 23 -109 12 -3 63 -12 112 -21 50 -8 100
-18 113 -20 l22 -5 0 -954 0 -954 -87 -16 c-49 -9 -109 -19 -135 -22 l-48 -7
0 -108 0 -109 923 2 922 3 0 290 0 290 -124 3 c-68 1 -128 -1 -132 -5 -4 -4
-15 -81 -25 -170 l-17 -163 -474 0 -473 0 0 440 0 440 445 0 445 0 0 130 0
130 -445 0 -445 0 0 395 0 395 445 0 445 0 4 -22 c3 -13 10 -70 16 -128 6 -58
13 -122 16 -142 l6 -38 129 0 129 0 0 290 0 290 -895 0 -895 0 0 -105z"/>
</g>
</svg>
