<?xml version="1.0" standalone="no"?>
<!DOCTYPE svg PUBLIC "-//W3C//DTD SVG 20010904//EN"
 "http://www.w3.org/TR/2001/REC-SVG-20010904/DTD/svg10.dtd">
<svg version="1.0" xmlns="http://www.w3.org/2000/svg"
 width="514.000000pt" height="514.000000pt" viewBox="0 0 514.000000 514.000000"
 preserveAspectRatio="xMidYMid meet">
<metadata>
Created by potrace 1.11, written by Peter Selinger 2001-2013
</metadata>
<g transform="translate(0.000000,514.000000) scale(0.100000,-0.100000)"
fill="#000000" stroke="none">
<path d="M1505 4188 c-81 -34 -210 -124 -253 -176 -83 -100 -128 -193 -158
-328 -13 -61 -19 -154 -24 -404 -8 -355 -12 -384 -70 -471 -35 -53 -102 -94
-172 -104 l-48 -7 0 -118 0 -117 45 -6 c70 -7 135 -46 172 -101 61 -89 65
-118 74 -481 4 -181 12 -352 18 -380 45 -205 142 -353 299 -456 70 -46 179
-95 189 -85 3 3 17 44 32 93 l28 88 -47 27 c-59 33 -122 104 -154 172 -53 111
-57 149 -66 511 -9 376 -18 437 -81 555 -28 53 -95 129 -143 164 -19 13 -16
17 46 74 76 72 120 147 149 259 18 68 22 122 29 418 8 361 12 391 65 511 28
64 105 148 160 176 22 11 41 21 42 22 1 1 -11 42 -26 91 -16 53 -34 91 -42 92
-8 2 -36 -7 -64 -19z"/>
<path d="M3525 4199 c-14 -42 -54 -173 -52 -175 1 -1 20 -11 42 -22 48 -24
125 -104 153 -158 62 -123 82 -273 82 -630 0 -254 11 -328 65 -435 30 -58 115
-153 157 -175 35 -18 35 -26 0 -46 -53 -31 -129 -118 -161 -183 -51 -103 -61
-171 -61 -430 0 -248 -11 -407 -35 -499 -34 -128 -103 -230 -193 -282 -26 -15
-48 -28 -49 -28 -7 -5 57 -181 67 -184 6 -2 55 18 108 44 156 77 281 216 338
376 40 112 47 179 54 508 8 358 12 386 73 476 37 55 102 94 172 101 l45 6 0
117 0 118 -49 7 c-74 10 -148 59 -183 121 -48 86 -58 160 -58 444 0 342 -18
459 -95 610 -62 122 -161 218 -292 284 -85 43 -121 53 -128 35z"/>
<path d="M1970 2770 l0 -1210 655 0 655 0 0 130 0 130 -500 0 -500 0 0 430 0
430 430 0 430 0 0 130 0 130 -430 0 -430 0 0 390 0 390 490 0 490 0 0 130 0
130 -645 0 -645 0 0 -1210z"/>
</g>
</svg>
